<svg clip-rule="evenodd" fill-rule="evenodd" height="100" image-rendering="optimizeQuality" shape-rendering="geometricPrecision" text-rendering="geometricPrecision" viewBox="0 0 100.00001 100" width="100.00001" xmlns="http://www.w3.org/2000/svg"><g fill="#044d29" fill-rule="nonzero" stroke-width="14.6206" transform="matrix(.07288512 0 0 .06418485 -24.79722 -16.43132)"><g><path d="m869 680c3-4 7-7 10-10 39-36 92-54 145-54s106 18 145 53l10 10 186 176 244-83c20-7 41-4 59 7 17 10 30 26 37 47 7 21 6 42-1 60-8 19-22 34-42 41l-294 100c-3 1-5 2-8 3s-6 2-9 2c-3 1-6 1-9 2-4 0-7 0-11 0h-1c-11 0-22-3-31-8-10-5-18-12-24-21l-46-50v764c0 45-22 74-49 87-11 5-23 8-35 8s-24-3-35-8c-28-13-49-43-49-87v-1l-17-393c-7-4-13-7-18-7-6 0-12 2-19 7l-17 394c0 45-22 74-49 87-11 5-23 8-35 8s-24-3-35-8c-28-13-49-43-49-87v-766c-35 36-78 79-102 80-3 0-7 0-11 0-3 0-6-1-9-2-3-1-6-1-9-2-2-1-5-2-8-3l-293-99c-1 0-2-1-3-1-19-7-33-22-41-40-7-18-8-39-1-60 7-21 21-37 37-47 18-10 38-14 58-7l244 82 186-176zm42 26c-3 2-5 5-7 7-1 1-1 2-2 2l-197 186c-6 6-15 8-24 5l-258-87c-6-2-13-1-19 3-7 4-13 12-16 21-3 9-3 19 0 27 3 6 7 11 13 13l296 99c1 0 1 1 2 1 1 1 2 1 4 2 1 0 3 1 4 1h1c1 0 2 0 3 1h3 1c7 0 50-45 82-78 11-12 21-23 29-30 4-5 11-8 18-8 13 0 24 11 24 24v825c0 24 10 38 22 44 4 2 9 3 14 3s10-1 14-3c12-6 22-21 22-44v-1l18-407c0-7 3-13 9-18 20-15 38-23 57-23s38 8 57 23c5 4 8 10 9 17l18 405v3c0 24 10 38 22 44 4 2 9 3 14 3s10-1 14-3c12-6 22-21 22-44v-825c0-6 3-13 8-18 10-9 25-8 34 1l88 95c1 1 2 2 3 4 2 3 5 5 8 7s7 3 11 3h2 3 2 2c1 0 2-1 4-1 1 0 3-1 4-2 1 0 1-1 2-1l295-100c6-2 11-7 13-13 3-8 3-17 0-26v-1c-3-9-9-16-16-21-6-4-13-5-19-3l-258 87c-8 3-17 1-24-5l-197-186c-1-1-1-1-2-2-3-3-6-6-8-8-30-27-71-41-113-41s-83 14-113 41z"/><g><path d="m1024 284c36 0 69 15 93 39s39 57 39 93-15 69-39 93-57 39-93 39-69-15-93-39-39-57-39-93 15-69 39-93 57-39 93-39zm59 73c-15-15-36-25-59-25s-44 9-59 25c-15 15-25 36-25 59s9 44 25 59c15 15 36 25 59 25s44-9 59-25c15-15 25-36 25-59s-9-44-25-59z"/><g><path d="m1000 294v-38h48v38z"/><path d="m1000 576v-38h48v38z"/></g><g><path d="m1064 298 19-32 42 23-19 33z"/><path d="m923 543 19-33 42 24-19 33z"/></g><g><path d="m1118 334 33-19 24 42-33 19z"/><path d="m873 475 33-19 24 42-33 19z"/></g><g><path d="m1146 392h38v48h-38z"/><path d="m864 392h38v48h-38z"/></g><g><path d="m1142 456 33 19-24 42-33-19z"/><path d="m897 315 33 19-24 42-33-19z"/></g><g><path d="m1106 510 19 33-42 24-19-33z"/><path d="m965 266 19 32-42 24-19-33z"/></g></g></g><path d="m444 651c3-8 12-13 20-10s13 12 10 20l-44 122c-3 8-12 13-20 10s-13-12-10-20z"/><path d="m413 627 103 28c5-4 8-8 10-12s2-10 0-16l-96-46-16 46zm101 61-125-34c-1 0-2 0-3-1-8-3-13-12-10-20l28-78s0-1 1-1c4-8 13-11 21-8l118 56c4 2 7 5 9 9 6 16 7 31 2 44s-15 24-29 32c-4 2-8 3-12 2z"/><path d="m1618 800c0 9-7 16-16 16s-16-7-16-16v-82c-8-5-15-11-21-17-10-12-16-26-18-41-2-14 1-30 7-44 6-13 15-26 27-37 7-6 17-5 23 2 3 3 4 7 4 11v40l21 14 21-14v-35c0-9 7-16 16-16 4 0 8 2 11 4 13 11 22 24 28 37s8 27 7 41c-2 14-7 27-17 38-6 7-13 13-22 18v82c0 9-7 16-16 16s-16-7-16-16v-91c0-6 4-12 10-15 9-4 15-9 20-14 5-6 8-13 9-21 0-3 0-7 0-10-1 2-3 3-4 5l-36 25c-5 4-13 5-19 1l-36-25c-2-1-4-3-5-5v8c1 9 4 17 10 23 5 5 11 10 18 13 6 2 11 8 11 15v91z"/></g><path d="m-340.2233-256h2048v2048h-2048z" fill="none"/></svg>