<svg clip-rule="evenodd" fill-rule="evenodd" height="100" image-rendering="optimizeQuality" shape-rendering="geometricPrecision" text-rendering="geometricPrecision" viewBox="0 0 100 100" width="100" xmlns="http://www.w3.org/2000/svg"><g stroke-width="14.9956" transform="matrix(.06510412 0 0 .0683068 -16.66659 -19.94606)"><path d="m1792 1024-731.99 731.99v-1463.983z" fill="#a9a9a9"/><path d="m255.99899 589.99402h913.09302v868.01202h-913.09302z" fill="#a9a9a9"/><g fill="#525252"><path d="m1087.3 913.279c0-22.5898 9.1547-43.0406 23.9563-57.841 14.8004-14.8016 35.2512-23.9563 57.8422-23.9563s43.0418 9.15473 57.841 23.9563c14.8016 14.7992 23.9563 35.25 23.9563 57.841s-9.1547 43.0418-23.9563 57.8422c-14.8004 14.8016-35.2512 23.9563-57.841 23.9563s-43.0418-9.15473-57.8422-23.9563c-14.8016-14.8004-23.9563-35.2524-23.9563-57.8422zm299.104 22.6937v-45.3851l-47.1898-17.765c-4.3512-18.3579-11.5949-35.5973-21.2268-51.2067l20.8146-45.9485-32.0918-32.0918-45.9485 20.8146c-15.6106-9.63072-32.8488-16.8768-51.2067-21.2268l-17.765-47.1898h-45.3851l-17.765 47.191c-18.3591 4.34646-35.5985 11.5925-51.2091 21.2244l-45.9461-20.8134-32.0918 32.0918 20.8158 45.9508c-9.6295 15.6106-16.8768 32.8465-21.2268 51.2044l-47.191 17.765v45.3851l47.1922 17.7662c4.3512 18.3567 11.5949 35.5925 21.2256 51.202l-20.8158 45.952 32.0918 32.0918 45.952-20.8158c15.6095 9.6307 32.8453 16.8756 51.202 21.2256l17.7662 47.1922h45.3851l17.765-47.191c18.3567-4.3512 35.5937-11.5949 51.2044-21.2268l45.9508 20.8158 32.0918-32.0918-20.8158-45.9508c9.6295-15.6106 16.8768-32.8465 21.2268-51.2044z"/><path d="m1002.71 1104.86c-6.10276-16.2567-14.7177-31.154-25.3229-44.289l13.6713-44.367-33.0236-25.5756-39.5363 24.3355c-15.3697-6.9815-31.95-11.5973-49.2166-13.4386l-21.6957-41.0233-41.4378 5.26654-10.7433 45.14766c-16.2555 6.1028-31.1528 14.7165-44.2878 25.3217l-44.3681-13.6713-25.5756 33.0236 24.3355 39.5374c-6.9815 15.3709-11.5961 31.95-13.4374 49.2154l-41.0244 21.6957 5.26654 41.4378 45.1489 10.7433c6.10276 16.2543 14.7154 31.1516 25.3205 44.2866l-13.6713 44.3693 33.0236 25.5756 39.5386-24.3366c15.3697 6.9804 31.9477 11.5949 49.213 13.4374l21.6969 41.0256 41.4378-5.2665 10.7433-45.1477c16.2555-6.1028 31.154-14.7165 44.2878-25.3217l44.3681 13.6713 25.57556-33.0236-24.33546-39.5374c6.98146-15.3709 11.59606-31.9488 13.43856-49.2154l41.0233-21.6957-5.2665-41.4378-45.1465-10.7433zm-104.526-2.8429c15.2315 11.7933 25.9642 29.4036 28.5851 50.0292 2.62205 20.6268-3.36378 40.3607-15.1606 55.591-11.7945 15.2315-29.4047 25.9642-50.0292 28.5851-20.6256 2.622-40.3607-3.3638-55.591-15.1606-15.2315-11.7945-25.9642-29.4059-28.5851-50.0304-2.62205-20.6256 3.36378-40.3595 15.1606-55.5898 11.7945-15.2315 29.4047-25.9642 50.0304-28.5851 20.6268-2.6221 40.3607 3.3638 55.5898 15.1606z"/></g></g><path d="m-255.99899-292.00699h2048v2048h-2048z" fill="none"/></svg>