<svg height="50" viewBox="0 0 34.820313 43.525391" width="40" xmlns="http://www.w3.org/2000/svg"><g stroke-width="9.8701" transform="matrix(.10511443 0 0 .09765625 -6.014543 0)"><path d="m282.18 292.25-37.96-87.15-37.97 87.15zm96.3-185.89v329.34h-263.18c-.42 0-.84-.01-1.26-.02v-328.18l.02-1.36c.41.01.83.02 1.24.02h262.68.5z" fill="#f2d59f"/><path d="m332.64 74.11c-1.78-5.01-2.74-10.4-2.74-16.02v-.01c0-26.55 21.53-48.08 48.08-48.08h.5v96.16h-.5c-20.93 0-38.75-13.38-45.34-32.05z" fill="#faf4f1"/><path d="m332.64 74.11c6.59 18.67 24.41 32.05 45.34 32.05h-262.68c-.41 0-.83-.01-1.24-.02-25.98-.65-46.84-21.91-46.84-48.05v-.01c0-26.55 21.53-48.08 48.09-48.08h262.67c-26.55 0-48.08 21.53-48.08 48.08v.01c0 5.62.96 11.01 2.74 16.02z" fill="#faf4f1"/><path d="m206.25 292.25 37.97-87.15 37.96 87.15z" fill="#f2d59f"/><path d="m114.06 106.14-.02 1.36v328.18c-25.97-.67-46.82-21.93-46.82-48.06v-329.53c0 26.14 20.86 47.4 46.84 48.05z" fill="#f2d59f"/><g fill="#5e2a41"><g stroke-width="9.8701"><path d="m378.48 116.16h-263.18c-.493 0-.997-.011-1.49-.023-15.201-.38-29.43-6.587-40.065-17.476-10.657-10.909-16.525-25.317-16.525-40.571 0-32.036 26.059-58.09 58.09-58.09h263.17c5.522 0 10 4.477 10 10s-4.478 10-10 10h-263.17c-21.003 0-38.09 17.083-38.09 38.08 0 20.828 16.292 37.543 37.09 38.063.327.008.663.017.99.017h263.18c5.522 0 10 4.477 10 10s-4.478 10-10 10z"/><path d="m378.48 116.16c-5.522 0-10-4.477-10-10v-96.16c0-5.523 4.478-10 10-10s10 4.477 10 10v96.16c0 5.523-4.478 10-10 10z"/><path d="m114.04 445.69c-5.522 0-10-4.467-10-9.99v-328.2c0-5.523 4.478-10 10-10s10 4.477 10 10v328.18c0 5.523-4.477 10.01-10 10.01z"/><path d="m67.22 397.62c-5.522 0-10-4.477-10-10v-329.53c0-5.523 4.478-10 10-10s10 4.477 10 10v329.53c0 5.523-4.477 10-10 10z"/><path d="m378.48 445.7c-5.522 0-10-4.477-10-10v-329.34c0-5.523 4.478-10 10-10s10 4.477 10 10v329.34c0 5.523-4.478 10-10 10z"/><path d="m332.65 84.11h-75.26c-5.522 0-10-4.477-10-10s4.478-10 10-10h75.25c5.523 0 10.005 4.477 10.005 10s-4.473 10-9.995 10z"/><path d="m329.9 52.06h-154.51c-5.522 0-10-4.477-10-10s4.478-10 10-10h154.51c5.522 0 10 4.477 10 10s-4.478 10-10 10z"/><path d="m378.48 445.7h-263.18c-.501 0-1.003-.011-1.504-.023-15.208-.393-29.431-6.605-40.061-17.494-10.65-10.91-16.516-25.315-16.516-40.563 0-5.523 4.478-10 10-10s10 4.477 10 10c0 20.808 16.287 37.527 37.078 38.064.325.008.663.017 1.002.017h263.18c5.522 0 10 4.477 10 10 .001 5.522-4.477 9.999-9.999 9.999z"/><path d="m377.98 116.16c-24.585 0-46.595-15.561-54.77-38.721-2.194-6.175-3.311-12.692-3.311-19.349.001-32.036 26.055-58.09 58.081-58.09 5.522 0 10 4.477 10 10s-4.478 10-10 10c-20.997 0-38.08 17.083-38.08 38.08 0 4.379.727 8.643 2.163 12.682 5.365 15.199 19.796 25.398 35.917 25.398 5.522 0 10 4.477 10 10s-4.478 10-10 10z"/></g><text font-family="Century Schoolbook" font-size="74.2833" stroke-width="8.59194" x="144.63821" y="250.70625"><tspan fill="#5e2a41" font-family="Century Schoolbook" font-size="74.2833" stroke-width="8.59194" x="144.63821" y="250.70625">eBoek</tspan></text></g></g></svg>