<svg height="50" viewBox="0 0 40 50" width="40" xmlns="http://www.w3.org/2000/svg"><g stroke-width="1.09726" transform="matrix(.93023256 0 0 .89285714 -6.046512 0)"><path d="m36.985 0h-29.022c-.808 0-1.463.655-1.463 1.926v53.074c0 .345.655 1 1.463 1h40.074c.808 0 1.463-.655 1.463-1v-42.022c0-.696-.093-.92-.257-1.085l-11.636-11.636c-.165-.164-.389-.257-.622-.257z" fill="#e9e9e0"/><path d="m37.5 12h11.849l-11.849-11.849z" fill="#d9d7ca"/><path d="m48.037 56h-40.074c-.808 0-1.463-.655-1.463-1.463v-15.537h43v15.537c0 .808-.655 1.463-1.463 1.463z" fill="#556080"/><text fill="#fff" font-family="sans-serif" font-size="16" x="10.1875" y="53.316406"><tspan stroke-width="1.09726" x="10.1875" y="53.316406">FILE</tspan></text></g></svg>